<?xml version="1.0" encoding="UTF-8" standalone="no"?>
<!DOCTYPE svg PUBLIC "-//W3C//DTD SVG 1.1//EN" "http://www.w3.org/Graphics/SVG/1.1/DTD/svg11.dtd">
<svg width="100%" height="100%" viewBox="0 0 134 176" version="1.1" xmlns="http://www.w3.org/2000/svg" xmlns:xlink="http://www.w3.org/1999/xlink" xml:space="preserve" xmlns:serif="http://www.serif.com/" style="fill-rule:evenodd;clip-rule:evenodd;stroke-linejoin:round;stroke-miterlimit:2;">
    <g transform="matrix(1,0,0,1,-403.495,-262.582)">
        <g id="he">
            <g transform="matrix(1,0,0,1,404.116,365.947)">
                <path d="M0,71.37C-0.216,72.232 132.666,70.795 132.666,70.795C132.666,70.795 131.481,33.413 100.2,16.323C106.619,6.393 96.074,0.728 84.121,-0.862L85.469,11.05C85.469,11.05 85.99,14.857 83.736,16.349C80.858,17.849 75.148,19.108 67.047,18.96L58.802,16.05L54.667,12.961L54.424,11.05L55.555,-0.862L42.471,1.814L34.972,7.192L33.552,13.475L36.991,19.704C36.991,19.704 9.655,32.83 0,71.37" style="fill:rgb(232,145,161);fill-rule:nonzero;"/>
            </g>
            <g transform="matrix(1,0,0,1,403.495,381.581)">
                <path d="M0,56.239L0.133,55.63C0.457,54.138 4.805,42.492 5.483,40.88C7.371,36.396 9.323,32.455 11.453,28.832C12.784,26.533 14.237,24.302 15.771,22.205C18.28,18.782 21.067,15.63 24.054,12.834C25.02,11.929 26.054,11.017 27.126,10.125C30.118,7.616 33.397,5.267 36.869,3.147L37.391,4.001C33.961,6.095 30.723,8.413 27.768,10.892C26.708,11.774 25.689,12.672 24.737,13.565C21.796,16.317 19.051,19.424 16.578,22.796C15.065,24.863 13.632,27.065 12.316,29.335C10.208,32.924 8.275,36.825 6.405,41.269C5.745,42.835 2.155,52.471 1.284,55.233L132.51,54.663C132.481,53.747 132.378,51.621 131.991,48.718C131.636,46.151 131.151,43.621 130.551,41.195C129.553,37.063 128.202,33.058 126.536,29.287C125.48,26.918 124.386,24.78 123.19,22.754C120.605,18.341 117.503,14.342 113.97,10.866C109.948,6.895 105.291,3.538 100.124,0.89L100.581,0C105.838,2.696 110.578,6.112 114.672,10.154C118.268,13.69 121.424,17.759 124.053,22.246C125.267,24.304 126.378,26.475 127.45,28.881C129.141,32.709 130.511,36.771 131.522,40.958C132.13,43.413 132.621,45.98 132.981,48.584C133.514,52.566 133.52,55.057 133.52,55.162L133.52,55.659L133.021,55.662L0,56.239Z" style="fill-rule:nonzero;"/>
            </g>
            <g transform="matrix(1,0,0,1,469.037,364.518)">
                <path d="M0,32.555C-0.031,32.555 -0.063,32.551 -0.095,32.546C-27.116,27.385 -32.275,19.2 -31.846,13.24C-30.987,1.338 -10.026,0.068 -9.135,0.021C-8.831,0 -8.623,0.217 -8.608,0.492C-8.593,0.768 -8.805,1.004 -9.08,1.018C-9.29,1.03 -30.054,2.287 -30.848,13.313C-31.249,18.867 -26.206,26.542 0.093,31.563C0.364,31.615 0.542,31.876 0.49,32.148C0.444,32.388 0.234,32.555 0,32.555" style="fill-rule:nonzero;"/>
            </g>
            <g transform="matrix(1,0,0,1,478.619,364.522)">
                <path d="M0,33.387C-0.206,33.387 -0.398,33.259 -0.471,33.054C-0.563,32.793 -0.428,32.508 -0.167,32.416C0.101,32.321 26.611,22.788 27.52,12.638C27.692,10.71 27.129,8.962 25.846,7.442C21.293,2.046 9.208,1.023 9.086,1.014C8.812,0.992 8.605,0.751 8.628,0.476C8.649,0.2 8.899,0 9.166,0.018C9.679,0.058 21.786,1.081 26.608,6.795C28.071,8.527 28.713,10.523 28.516,12.727C27.551,23.513 1.285,32.96 0.167,33.358C0.112,33.377 0.056,33.387 0,33.387" style="fill-rule:nonzero;"/>
            </g>
            <g transform="matrix(0.333377,-0.942794,-0.942794,-0.333377,458.553,372.679)">
                <path d="M-7.252,-4.007C-7.225,-3.929 -4.545,3.833 -8.112,9.853L-7.252,10.364C-3.43,3.933 -6.191,-4.006 -6.309,-4.341L-7.252,-4.007Z" style="fill-rule:nonzero;"/>
            </g>
            <g transform="matrix(-0.595993,-0.80299,-0.80299,0.595993,500.139,381.839)">
                <path d="M6.208,8.719L7.208,8.719C7.207,8.389 7.161,0.614 3.686,-3.346L2.936,-2.685C6.171,0.991 6.207,8.643 6.208,8.719" style="fill-rule:nonzero;"/>
            </g>
            <g transform="matrix(1,0,0,1,464.601,399.569)">
                <path d="M0,26.179C-0.029,26.179 -0.059,26.176 -0.088,26.171C-0.359,26.123 -0.541,25.863 -0.493,25.592L3.943,0.457C3.991,0.184 4.256,0 4.522,0.051C4.794,0.1 4.976,0.359 4.928,0.63L0.491,25.766C0.448,26.008 0.237,26.179 0,26.179" style="fill-rule:nonzero;"/>
            </g>
            <g transform="matrix(1,0,0,1,480.2,400.383)">
                <path d="M0,25.365C-0.245,25.365 -0.459,25.184 -0.494,24.934L-3.918,0.599C-3.956,0.327 -3.766,0.073 -3.492,0.036C-3.226,0 -2.967,0.186 -2.928,0.461L0.496,24.795C0.534,25.069 0.344,25.322 0.07,25.36C0.047,25.362 0.023,25.365 0,25.365" style="fill-rule:nonzero;"/>
            </g>
            <g transform="matrix(1,0,0,1,442.51,356.227)">
                <path d="M0,-56.984C-1.095,-51.474 -1.42,-45.833 -1.101,-40.244C-0.771,-34.661 0.167,-29.093 1.998,-23.821C3.833,-18.572 6.54,-13.562 10.425,-9.599C14.283,-5.626 19.342,-2.885 24.766,-1.784C30.175,-0.718 35.9,-0.681 41.225,-2.157C43.883,-2.903 46.422,-4.067 48.701,-5.624C50.991,-7.17 52.987,-9.125 54.707,-11.295C58.151,-15.656 60.374,-20.905 61.806,-26.295C63.261,-31.698 63.947,-37.301 64.127,-42.913C64.185,-37.297 63.62,-31.655 62.307,-26.167C60.957,-20.705 58.808,-15.338 55.352,-10.795C51.93,-6.242 46.989,-2.802 41.48,-1.259C38.736,-0.466 35.885,-0.099 33.043,-0.039C30.202,0 27.351,-0.22 24.562,-0.834C18.976,-1.994 13.74,-4.865 9.789,-8.979C5.795,-13.075 3.073,-18.228 1.311,-23.588C-0.459,-28.965 -1.342,-34.595 -1.555,-40.223C-1.727,-45.851 -1.299,-51.514 0,-56.984" style="fill-rule:nonzero;"/>
            </g>
            <g transform="matrix(0,-1,-1,0,461.18,317.756)">
                <path d="M-1.86,-1.861C-3.23,-1.861 -4.34,-1.028 -4.34,-0.001C-4.34,1.027 -3.23,1.86 -1.86,1.86C-0.491,1.86 0.619,1.027 0.619,-0.001C0.619,-1.028 -0.491,-1.861 -1.86,-1.861" style="fill-rule:nonzero;"/>
            </g>
            <g transform="matrix(0,-1,-1,0,485.223,318.612)">
                <path d="M-1.861,-1.86C-3.23,-1.86 -4.34,-1.027 -4.34,0.001C-4.34,1.029 -3.23,1.861 -1.861,1.861C-0.491,1.861 0.619,1.029 0.619,0.001C0.619,-1.027 -0.491,-1.86 -1.861,-1.86" style="fill-rule:nonzero;"/>
            </g>
            <g transform="matrix(1,0,0,1,473.29,332.415)">
                <path d="M0,-13.791C0.148,-12.427 -0.068,-11.009 -0.544,-9.699C-0.999,-8.382 -1.722,-7.153 -2.512,-6.043C-3.286,-4.97 -4.005,-3.856 -3.795,-2.69C-3.59,-1.538 -2.62,-0.409 -1.269,-0.161C-2.653,0 -4.144,-1.021 -4.555,-2.51C-4.796,-3.258 -4.657,-4.084 -4.395,-4.769C-4.118,-5.462 -3.714,-6.054 -3.33,-6.617C-1.753,-8.77 -0.502,-11.093 0,-13.791" style="fill-rule:nonzero;"/>
            </g>
            <g transform="matrix(1,0,0,1,463.343,340.642)">
                <path d="M0,-8.419C0.403,-7.346 0.896,-6.315 1.511,-5.371C2.103,-4.416 2.809,-3.537 3.635,-2.812C4.461,-2.093 5.376,-1.474 6.404,-1.141C6.652,-1.034 6.908,-0.954 7.175,-0.905C7.438,-0.851 7.696,-0.77 7.963,-0.732C8.502,-0.705 9.041,-0.595 9.577,-0.669C11.743,-0.705 13.759,-1.792 15.344,-3.328C16.158,-4.084 16.848,-4.981 17.471,-5.919C18.116,-6.849 18.666,-7.848 19.152,-8.888C18.553,-6.671 17.472,-4.553 15.897,-2.794C15.106,-1.924 14.185,-1.134 13.104,-0.588C12.025,-0.066 10.835,0.323 9.618,0.33C7.212,0.469 4.726,-0.51 3.104,-2.258C1.447,-3.971 0.421,-6.163 0,-8.419" style="fill-rule:nonzero;"/>
            </g>
            <g opacity="0.4">
                <g transform="matrix(0,-1,-1,0,489.585,323.667)">
                    <path d="M-6.232,-6.231C-9.672,-6.231 -12.462,-3.441 -12.462,-0C-12.462,3.442 -9.672,6.232 -6.232,6.232C-2.791,6.232 -0.001,3.442 -0.001,-0C-0.001,-3.441 -2.791,-6.231 -6.232,-6.231" style="fill:rgb(232,145,161);fill-rule:nonzero;"/>
                </g>
            </g>
            <g opacity="0.4">
                <g transform="matrix(0,-1,-1,0,455.929,323.667)">
                    <path d="M-6.232,-6.231C-9.672,-6.231 -12.462,-3.441 -12.462,0.001C-12.462,3.442 -9.672,6.232 -6.232,6.232C-2.791,6.232 -0.001,3.442 -0.001,0.001C-0.001,-3.441 -2.791,-6.231 -6.232,-6.231" style="fill:rgb(232,145,161);fill-rule:nonzero;"/>
                </g>
            </g>
            <g transform="matrix(1,0,0,1,455.928,310.554)">
                <path d="M0,3.599L8.876,4.288C8.876,4.288 6.759,-0.689 0,3.599" style="fill-rule:nonzero;"/>
            </g>
            <g transform="matrix(1,0,0,1,488.334,309.98)">
                <path d="M0,4.863L-7.148,4.849C-7.148,4.849 -5.608,0 0,4.863" style="fill-rule:nonzero;"/>
            </g>
            <g transform="matrix(1,0,0,1,506.238,326.99)">
                <path d="M0,-6.531C0.855,-7.96 1.985,-9.233 3.324,-10.276C4.671,-11.287 6.367,-12.013 8.159,-11.903C9.047,-11.863 9.918,-11.596 10.698,-11.194C11.479,-10.812 12.238,-10.219 12.76,-9.48C13.831,-7.986 14.08,-6.114 13.915,-4.392C13.531,-0.921 11.423,2.284 8.402,3.964C6.908,4.825 5.213,5.27 3.528,5.392C1.837,5.482 0.15,5.261 -1.44,4.768C0.199,5.041 1.864,5.155 3.48,4.907C5.092,4.69 6.666,4.186 8.01,3.306C10.714,1.605 12.594,-1.353 12.92,-4.496C13.087,-6.046 12.856,-7.686 11.985,-8.933C11.558,-9.566 10.988,-10.045 10.291,-10.417C9.605,-10.787 8.864,-11.051 8.094,-11.134C6.544,-11.321 4.952,-10.764 3.605,-9.873C2.227,-9.005 1.037,-7.825 0,-6.531" style="fill-rule:nonzero;"/>
            </g>
            <g transform="matrix(1,0,0,1,505.319,320.22)">
                <path d="M0,6.43C0.452,5.42 1.109,4.517 1.854,3.697C2.598,2.873 3.465,2.159 4.408,1.552C5.358,0.954 6.418,0.518 7.513,0.266C8.608,0 9.761,0.032 10.832,0.252C9.741,0.449 8.71,0.633 7.73,1.016C6.759,1.397 5.813,1.828 4.937,2.4C3.163,3.509 1.573,4.904 0,6.43" style="fill-rule:nonzero;"/>
            </g>
            <g transform="matrix(1,0,0,1,441.306,322.066)">
                <path d="M0,-7.117C-1.052,-8.387 -2.265,-9.531 -3.665,-10.343C-5.035,-11.18 -6.641,-11.644 -8.174,-11.388C-9.673,-11.1 -11.185,-10.337 -11.977,-9.073C-12.808,-7.811 -13.028,-6.181 -12.835,-4.638C-12.479,-1.515 -10.59,1.409 -7.891,3.088C-5.174,4.802 -1.721,5.106 1.515,4.52C-0.066,5.009 -1.743,5.233 -3.426,5.146C-5.1,5.026 -6.789,4.596 -8.278,3.745C-11.291,2.093 -13.41,-1.077 -13.826,-4.524C-14.025,-6.235 -13.784,-8.091 -12.768,-9.601C-12.269,-10.346 -11.541,-10.961 -10.768,-11.365C-10.002,-11.78 -9.151,-12.069 -8.274,-12.159C-6.502,-12.35 -4.774,-11.718 -3.396,-10.761C-2.026,-9.767 -0.87,-8.526 0,-7.117" style="fill-rule:nonzero;"/>
            </g>
            <g transform="matrix(1,0,0,1,430.669,321.82)">
                <path d="M0,-6.366C1.155,-6.643 2.379,-6.623 3.561,-6.411C4.748,-6.209 5.902,-5.78 6.953,-5.169C7.991,-4.546 8.963,-3.781 9.706,-2.826C10.493,-1.913 11.048,-0.83 11.449,0.277C10.682,-0.632 9.979,-1.533 9.135,-2.294C8.328,-3.085 7.414,-3.744 6.452,-4.304C4.527,-5.447 2.331,-6.08 0,-6.366" style="fill-rule:nonzero;"/>
            </g>
            <g transform="matrix(1,0,0,1,514.637,281.695)">
                <path d="M0,19.651C-0.848,18.906 -1.196,17.742 -1.325,16.621C-1.454,15.5 -1.404,14.357 -1.639,13.254C-2.259,10.328 -4.524,8.513 -7.174,7.833C-6.647,7.712 -6.147,7.504 -5.719,7.176C-4.89,6.543 -4.394,5.414 -4.704,4.418C-6.296,5.427 -8.665,4.884 -9.659,3.284C-10.102,2.573 -10.279,1.735 -10.509,0.929C-10.953,-0.633 -11.619,-2.133 -12.479,-3.511C-13.166,-4.609 -14.015,-5.662 -15.174,-6.241C-16.333,-6.819 -17.858,-6.814 -18.817,-5.943C-18.927,-9.217 -22.023,-11.816 -25.264,-12.299C-26.372,-12.464 -28.952,-12.238 -31.142,-11.596C-31.104,-11.776 -31.059,-11.953 -31.035,-12.136C-30.705,-14.73 -31.796,-17.461 -33.823,-19.113C-33.971,-16.4 -36.742,-14.474 -39.438,-14.134C-42.134,-13.795 -44.824,-14.589 -47.507,-15.02C-49.172,-15.287 -51.156,-15.297 -52.212,-13.982C-53.498,-14.804 -55.005,-15.437 -56.519,-15.237C-58.033,-15.037 -59.478,-13.766 -59.43,-12.24C-61.726,-13.768 -64.737,-14.029 -67.377,-13.228C-70.016,-12.427 -72.29,-10.644 -73.986,-8.468C-75.56,-6.452 -76.688,-4.037 -76.921,-1.49C-77.06,0.016 -76.857,2.827 -75.784,4.422C-75.795,4.421 -75.806,4.419 -75.817,4.418C-78.242,4.212 -81.288,4.874 -81.979,7.311C-82.322,8.526 -82.52,10.849 -80.669,13.064C-81.788,12.855 -83.025,13.207 -83.781,14.058C-84.538,14.909 -84.729,16.255 -84.14,17.229C-83.463,18.351 -81.887,18.994 -81.835,20.302C-81.799,21.193 -82.616,21.969 -83.502,22.074C-84.388,22.178 -85.27,21.728 -85.881,21.079C-86.242,20.694 -86.541,20.182 -86.448,19.663C-87.405,22.547 -85.747,24.782 -84.09,26.406C-83.029,27.446 -80.565,28.874 -78.551,28.855C-78.538,28.911 -78.529,28.969 -78.518,29.025L-75.613,30.608L-73.686,32.934L-73.312,25.289C-62.09,23.716 -58.558,15.017 -57.512,10.977C-54.663,13.463 -49.611,16.151 -42.5,13.457C-42.5,13.457 -46.159,18.214 -41.47,23.279C-41.47,23.279 -42.038,16.416 -36.141,15.598C-36.141,15.598 -26.152,24.313 -16.314,14.461C-16.315,28.566 -8.285,30.259 -8.285,30.259L-8.068,33.285L-8.521,38.764L-5.936,36.003C-5.936,36.003 -5.596,34.077 -4.795,30.893C-2.174,29.283 -1.144,25.766 -1.486,22.918C0.563,23.585 3.01,21.842 3.048,19.687C2.297,20.529 0.847,20.396 0,19.651" style="fill:rgb(232,145,161);fill-rule:nonzero;"/>
            </g>
            <g transform="matrix(0.469701,0.882826,0.882826,-0.469701,461.646,353.352)">
                <path d="M12.525,-8.608C12.525,-8.608 25.782,10.808 14.578,20.72L12.525,21.812C12.525,21.812 8.704,6.149 0.121,-0.352L12.525,-8.608Z" style="fill-rule:nonzero;"/>
            </g>
            <g transform="matrix(1,0,0,1,475.846,352.926)">
                <path d="M0,32.836C-3.629,32.838 -7.23,32.209 -10.519,30.992C-12.688,30.19 -14.515,29.155 -15.945,27.915L-16.095,27.792C-17.079,26.988 -17.604,26.455 -17.561,25.941L-17.561,25.942C-17.562,25.942 -17.512,25.342 -15.415,-0.002L-14.419,0.081C-14.419,0.081 -16.552,25.862 -16.564,26.023C-16.528,26.052 -16.302,26.331 -15.462,27.018L-15.291,27.16C-13.951,28.319 -12.229,29.293 -10.172,30.055C-6.445,31.432 -2.292,32.03 1.814,31.783C6.251,31.518 9.912,29.926 13.204,28.206L10.121,0.763L11.115,0.651L14.274,28.774L13.973,28.934C10.503,30.764 6.636,32.496 1.875,32.78C1.25,32.818 0.625,32.836 0,32.836" style="fill-rule:nonzero;"/>
            </g>
            <g transform="matrix(1,0,0,1,473.167,290.955)">
                <path d="M0,14.019C-1.11,12.919 -1.974,11.532 -2.44,9.978C-2.919,8.43 -2.839,6.644 -2.11,5.123C-1.344,3.614 -0.066,2.52 1.276,1.662C1.983,1.296 2.699,0.945 3.426,0.65C4.187,0.431 4.93,0.184 5.687,0C5.005,0.398 4.311,0.732 3.633,1.094C2.974,1.487 2.342,1.915 1.704,2.314C0.532,3.248 -0.57,4.263 -1.211,5.56C-1.842,6.849 -1.97,8.34 -1.685,9.795C-1.38,11.245 -0.804,12.684 0,14.019" style="fill-rule:nonzero;"/>
            </g>
        </g>
    </g>
</svg>
