<?xml version="1.0" encoding="UTF-8" standalone="no"?>
<!DOCTYPE svg PUBLIC "-//W3C//DTD SVG 1.1//EN" "http://www.w3.org/Graphics/SVG/1.1/DTD/svg11.dtd">
<svg width="100%" height="100%" viewBox="0 0 162 165" version="1.1" xmlns="http://www.w3.org/2000/svg" xmlns:xlink="http://www.w3.org/1999/xlink" xml:space="preserve" xmlns:serif="http://www.serif.com/" style="fill-rule:evenodd;clip-rule:evenodd;stroke-linejoin:round;stroke-miterlimit:2;">
    <g transform="matrix(1,0,0,1,-33.0017,-60.9909)">
        <g id="She">
            <g transform="matrix(1,0,0,1,78.0757,68.2265)">
                <path d="M0,32.355C0,32.355 1.495,-8.2 35.057,-7.218C68.619,-6.237 70.982,32.438 71.211,37.26C71.211,37.26 69.233,38.724 68.076,40.555L68.245,35.086C68.245,35.086 30.961,37.127 20.55,12.797C20.55,12.797 19.989,29.98 3.379,29.98C3.379,29.98 3.138,34.084 3.37,35.787L0,32.355Z" style="fill:rgb(232,145,161);fill-rule:nonzero;"/>
            </g>
            <g transform="matrix(1,0,0,1,82.6621,161.306)">
                <path d="M0,-46.063C2.774,-25.764 18.054,-19.024 18.054,-19.024L16.501,0C11.64,-0.265 6.951,-0.583 2.468,-0.935C1.978,-0.973 1.491,-1.012 1.008,-1.052L-0.167,-13.385L-5.116,-1.584C-7.909,-1.837 -10.604,-2.105 -13.188,-2.377L-13.934,-12.105L-19.976,-3.134C-20.708,-3.215 -21.415,-3.296 -22.121,-3.377C-24.068,-3.62 -25.928,-3.852 -27.701,-4.083C-29.375,-4.303 -30.975,-4.523 -32.475,-4.731C-43.015,-6.201 -49.178,-7.382 -49.178,-7.382C-51.112,-13.574 -47.033,-20.866 -40.473,-22.903C-38.055,-23.655 -35.327,-23.794 -33.293,-25.23C-31.384,-26.56 -30.454,-28.748 -29.214,-30.658C-26.846,-34.327 -23.051,-37.186 -18.699,-38.563C-16.777,-39.176 -14.743,-39.512 -12.871,-40.252C-10.093,-41.352 -7.849,-43.424 -6.435,-45.913C-3.734,-44.924 0,-46.063 0,-46.063" style="fill:rgb(232,145,161);fill-rule:nonzero;"/>
            </g>
            <g transform="matrix(1,0,0,1,152.507,162.132)">
                <path d="M0,-41.991C1.934,-40.035 3.985,-37.143 4.94,-32.56C8.226,-16.761 26.379,-28.601 35.94,-19.701C41.086,-14.909 42.165,-5.036 42.165,-5.036C32.657,-3.443 23.048,-2.29 13.506,-1.493L7.805,-7.6L8.254,-1.089C4.844,-0.849 1.447,-0.653 -1.93,-0.496L-5.339,-15.73L-6.028,-0.325C-12.102,-0.1 -18.099,0 -23.973,-0.002L-26.284,-19.487C-26.284,-19.487 -13.631,-24.854 -8.5,-41.991C-8.5,-41.991 -4.604,-39.997 0,-41.991" style="fill:rgb(232,145,161);fill-rule:nonzero;"/>
            </g>
            <g transform="matrix(1,0,0,1,81.4551,145.08)">
                <path d="M0,-46.873C-0.074,-41.692 0.252,-36.502 1.172,-31.417C2.072,-26.34 3.56,-21.334 5.996,-16.81C8.423,-12.304 11.846,-8.29 16.212,-5.629C18.379,-4.29 20.74,-3.278 23.187,-2.563C25.635,-1.828 28.189,-1.505 30.737,-1.317C35.834,-0.979 41.054,-1.571 45.721,-3.653C50.406,-5.705 54.283,-9.31 57.107,-13.571C59.948,-17.847 61.799,-22.74 63.017,-27.746C64.262,-32.76 64.849,-37.931 65.024,-43.109C65.075,-37.925 64.586,-32.724 63.495,-27.635C62.362,-22.565 60.578,-17.577 57.751,-13.15C54.964,-8.718 50.924,-4.986 46.096,-2.823C41.271,-0.638 35.89,0 30.674,-0.32C28.063,-0.527 25.443,-0.875 22.922,-1.647C20.401,-2.399 17.965,-3.459 15.731,-4.859C11.242,-7.645 7.689,-11.792 5.319,-16.453C2.916,-21.116 1.499,-26.205 0.691,-31.337C-0.072,-36.483 -0.299,-41.697 0,-46.873" style="fill-rule:nonzero;"/>
            </g>
            <g transform="matrix(0,-1,-1,0,101.023,106.413)">
                <path d="M-1.86,-1.86C-3.23,-1.86 -4.34,-1.027 -4.34,0C-4.34,1.027 -3.23,1.86 -1.86,1.86C-0.49,1.86 0.62,1.027 0.62,0C0.62,-1.027 -0.49,-1.86 -1.86,-1.86" style="fill-rule:nonzero;"/>
            </g>
            <g transform="matrix(0,-1,-1,0,125.065,107.269)">
                <path d="M-1.86,-1.86C-3.23,-1.86 -4.34,-1.027 -4.34,0C-4.34,1.027 -3.23,1.86 -1.86,1.86C-0.49,1.86 0.62,1.027 0.62,0C0.62,-1.027 -0.49,-1.86 -1.86,-1.86" style="fill-rule:nonzero;"/>
            </g>
            <g transform="matrix(1,0,0,1,113.132,121.072)">
                <path d="M0,-13.791C0.148,-12.427 -0.069,-11.009 -0.543,-9.7C-1,-8.382 -1.722,-7.154 -2.512,-6.043C-3.286,-4.97 -4.005,-3.856 -3.795,-2.69C-3.59,-1.538 -2.621,-0.409 -1.269,-0.161C-2.653,0 -4.143,-1.022 -4.554,-2.51C-4.796,-3.258 -4.657,-4.084 -4.395,-4.769C-4.118,-5.462 -3.713,-6.054 -3.331,-6.617C-1.753,-8.77 -0.502,-11.093 0,-13.791" style="fill-rule:nonzero;"/>
            </g>
            <g transform="matrix(1,0,0,1,103.623,128.221)">
                <path d="M0,-8.42C0.404,-7.346 0.896,-6.317 1.511,-5.372C2.103,-4.417 2.809,-3.538 3.634,-2.812C4.46,-2.093 5.375,-1.474 6.405,-1.142C6.652,-1.035 6.909,-0.955 7.175,-0.907C7.438,-0.851 7.696,-0.771 7.963,-0.734C8.502,-0.706 9.042,-0.596 9.577,-0.67C11.743,-0.706 13.759,-1.793 15.344,-3.329C16.158,-4.085 16.848,-4.982 17.471,-5.92C18.117,-6.85 18.667,-7.849 19.152,-8.888C18.553,-6.671 17.472,-4.554 15.897,-2.795C15.106,-1.924 14.185,-1.134 13.104,-0.589C12.026,-0.067 10.835,0.323 9.618,0.329C7.212,0.468 4.726,-0.511 3.105,-2.259C1.448,-3.971 0.421,-6.165 0,-8.42" style="fill-rule:nonzero;"/>
            </g>
            <g opacity="0.4">
                <g transform="matrix(0,-1,-1,0,129.428,112.324)">
                    <path d="M-6.231,-6.23C-9.672,-6.23 -12.461,-3.44 -12.461,0.001C-12.461,3.442 -9.672,6.231 -6.231,6.231C-2.79,6.231 0,3.442 0,0.001C0,-3.44 -2.79,-6.23 -6.231,-6.23" style="fill:rgb(232,145,161);fill-rule:nonzero;"/>
                </g>
            </g>
            <g opacity="0.4">
                <g transform="matrix(0,-1,-1,0,95.771,112.324)">
                    <path d="M-6.231,-6.23C-9.672,-6.23 -12.461,-3.44 -12.461,0C-12.461,3.442 -9.672,6.231 -6.231,6.231C-2.79,6.231 0,3.442 0,0C0,-3.44 -2.79,-6.23 -6.231,-6.23" style="fill:rgb(232,145,161);fill-rule:nonzero;"/>
                </g>
            </g>
            <g transform="matrix(1,0,0,1,97.1133,104.418)">
                <path d="M0,-3.304C-0.094,-3.304 -0.19,-3.301 -0.289,-3.293C-1.849,-3.178 -3.407,-2.164 -4.927,-0.279L2.396,-2.512C1.955,-2.829 1.109,-3.304 0,-3.304M-6.246,0.646L-5.802,0.041C-4.04,-2.367 -2.194,-3.658 -0.316,-3.792C1.731,-3.95 3.039,-2.639 3.093,-2.583L3.381,-2.289L-6.246,0.646Z" style="fill-rule:nonzero;"/>
            </g>
            <g transform="matrix(1,0,0,1,123.652,105.198)">
                <path d="M0,-2.196L5.492,0.408C4.519,-1.565 3.423,-2.667 2.229,-2.87C1.237,-3.037 0.405,-2.518 0,-2.196M6.512,1.445L-0.862,-2.052L-0.63,-2.301C-0.579,-2.357 0.637,-3.641 2.308,-3.363C3.8,-3.113 5.123,-1.702 6.24,0.83L6.512,1.445Z" style="fill-rule:nonzero;"/>
            </g>
            <g transform="matrix(1,0,0,1,145.948,115.698)">
                <path d="M0,-6.582C0.902,-7.985 2.049,-9.24 3.396,-10.276C4.753,-11.275 6.432,-12.012 8.227,-11.942C9.115,-11.905 9.996,-11.667 10.786,-11.272C11.568,-10.893 12.338,-10.309 12.866,-9.572C13.945,-8.08 14.211,-6.207 14.052,-4.481C13.679,-1 11.573,2.215 8.551,3.904C7.055,4.769 5.357,5.217 3.67,5.34C1.976,5.43 0.286,5.21 -1.307,4.716C0.334,4.991 2.003,5.103 3.622,4.854C5.236,4.637 6.812,4.128 8.157,3.246C10.863,1.536 12.74,-1.432 13.057,-4.58C13.219,-6.135 12.972,-7.772 12.097,-9.019C11.249,-10.261 9.694,-10.992 8.176,-11.174C6.619,-11.326 5.033,-10.755 3.674,-9.872C2.285,-9.009 1.081,-7.846 0,-6.582" style="fill-rule:nonzero;"/>
            </g>
            <g transform="matrix(1,0,0,1,145.162,108.878)">
                <path d="M0,6.429C0.451,5.42 1.109,4.516 1.853,3.696C2.597,2.873 3.465,2.158 4.408,1.551C5.358,0.953 6.417,0.517 7.513,0.265C8.608,0 9.76,0.031 10.831,0.251C9.741,0.448 8.71,0.633 7.729,1.015C6.759,1.396 5.812,1.828 4.937,2.399C3.163,3.508 1.572,4.903 0,6.429" style="fill-rule:nonzero;"/>
            </g>
            <g transform="matrix(1,0,0,1,81.4453,110.434)">
                <path d="M0,-6.421C-1.065,-7.704 -2.269,-8.879 -3.657,-9.751C-5.022,-10.617 -6.598,-11.265 -8.167,-11.087C-8.553,-11.03 -8.943,-11.011 -9.307,-10.857L-9.863,-10.683C-10.043,-10.609 -10.212,-10.504 -10.387,-10.417C-11.118,-10.098 -11.691,-9.603 -12.139,-8.987C-13.036,-7.753 -13.305,-6.114 -13.155,-4.552C-12.855,-1.392 -10.984,1.596 -8.275,3.32C-6.928,4.208 -5.349,4.727 -3.729,4.943C-2.105,5.195 -0.43,5.084 1.217,4.808C-0.381,5.305 -2.078,5.523 -3.778,5.431C-5.472,5.307 -7.173,4.85 -8.672,3.979C-11.698,2.272 -13.799,-0.964 -14.15,-4.46C-14.295,-6.194 -14.007,-8.075 -12.896,-9.551C-12.349,-10.273 -11.586,-10.874 -10.773,-11.201C-10.572,-11.294 -10.379,-11.404 -10.172,-11.482L-9.527,-11.662C-9.104,-11.809 -8.652,-11.815 -8.209,-11.851C-6.406,-11.944 -4.742,-11.136 -3.379,-10.151C-2.033,-9.108 -0.888,-7.839 0,-6.421" style="fill-rule:nonzero;"/>
            </g>
            <g transform="matrix(1,0,0,1,70.5117,110.476)">
                <path d="M0,-6.366C1.155,-6.643 2.378,-6.622 3.56,-6.411C4.748,-6.209 5.902,-5.78 6.953,-5.169C7.991,-4.545 8.963,-3.781 9.705,-2.826C10.493,-1.912 11.047,-0.829 11.448,0.277C10.681,-0.632 9.979,-1.533 9.135,-2.294C8.327,-3.084 7.414,-3.743 6.452,-4.304C4.527,-5.447 2.331,-6.08 0,-6.366" style="fill-rule:nonzero;"/>
            </g>
            <g transform="matrix(0.469714,0.882818,0.882818,-0.469714,101.488,142.009)">
                <path d="M12.525,-8.607C12.525,-8.607 25.781,10.807 14.577,20.719L12.525,21.811C12.525,21.811 8.704,6.15 0.121,-0.352L12.525,-8.607Z" style="fill-rule:nonzero;"/>
            </g>
            <g transform="matrix(1,0,0,1,114.608,146.147)">
                <path d="M0,28.492C-10.542,28.492 -16.287,21.834 -16.367,21.739L-16.499,21.582L-14.336,-4.566L-13.339,-4.484L-15.468,21.248C-14.143,22.717 -3.892,33.058 14.283,23.641L11.2,-3.802L12.194,-3.913L15.354,24.209L15.052,24.368C9.292,27.407 4.255,28.492 0,28.492" style="fill-rule:nonzero;"/>
            </g>
            <g transform="matrix(1,0,0,1,89.5396,224.156)">
                <path d="M0,-55.173C-7.454,-51.934 -12.519,-48.638 -18.756,-43.409C-19.798,-42.542 -20.814,-41.649 -21.807,-40.718C-24.894,-37.829 -27.61,-34.717 -30.028,-31.419C-31.578,-29.298 -33.004,-27.103 -34.318,-24.834C-36.563,-21.015 -38.509,-16.997 -40.258,-12.843C-40.99,-11.107 -41.684,-9.334 -42.354,-7.548C-42.639,-6.792 -42.924,-6.036 -43.185,-5.267C-43.668,-3.89 -44.114,-2.489 -44.424,-1.063L86.818,1.243C86.818,1.119 86.805,-1.361 86.285,-5.267C85.987,-7.412 85.541,-9.991 84.833,-12.843C83.953,-16.489 82.664,-20.593 80.791,-24.834C79.824,-27.004 78.72,-29.212 77.418,-31.419C75,-35.548 71.95,-39.64 68.118,-43.409C62.857,-48.605 55.315,-53.184 46.67,-56.416C46.67,-56.416 47.337,-44.208 38.208,-41.943C29.078,-39.677 25.456,-43.727 24.486,-47.64C24.486,-47.64 23.449,-42.492 16.928,-42.011C10.406,-41.53 4.091,-45.377 0,-55.173" style="fill:rgb(232,145,161);fill-rule:nonzero;"/>
            </g>
            <g transform="matrix(1,0,0,1,176.857,164.782)">
                <path d="M0,61.12L-133.265,61.185L-132.23,58.199C-131.884,56.605 -131.377,55.083 -130.974,53.936L-130.871,53.641C-130.637,52.977 -130.388,52.304 -130.139,51.643C-129.626,50.283 -129.013,48.682 -128.359,47.125C-128.267,46.869 -128.153,46.603 -128.039,46.337C-126.148,41.844 -124.195,37.903 -122.067,34.281C-121.247,32.87 -120.398,31.51 -119.546,30.238C-118.978,29.372 -118.372,28.501 -117.748,27.653C-115.24,24.233 -112.454,21.08 -109.466,18.285C-108.503,17.382 -107.498,16.495 -106.394,15.575C-98.476,8.937 -88.94,3.68 -78.051,-0.051L-77.727,0.895C-88.499,4.586 -97.928,9.783 -105.752,16.342C-106.843,17.251 -107.833,18.125 -108.782,19.015C-111.725,21.768 -114.47,24.874 -116.942,28.245C-117.556,29.079 -118.151,29.936 -118.713,30.791C-119.556,32.049 -120.393,33.392 -121.204,34.786C-123.311,38.37 -125.244,42.273 -127.114,46.719C-127.227,46.98 -127.333,47.228 -127.428,47.49C-128.085,49.054 -128.693,50.644 -129.203,51.996C-129.45,52.65 -129.697,53.316 -129.931,53.982L-130.034,54.277C-130.373,55.244 -130.792,56.493 -131.115,57.816L-1.01,60.102C-1.039,59.181 -1.143,57.061 -1.529,54.167L-1.566,53.877C-1.91,51.505 -2.297,49.455 -2.784,47.436C-2.818,47.261 -2.856,47.11 -2.894,46.956L-2.972,46.636C-3.966,42.518 -5.316,38.512 -6.984,34.736C-7.598,33.368 -8.249,32.025 -8.916,30.748C-9.392,29.837 -9.854,29.005 -10.329,28.205C-12.914,23.791 -16.016,19.792 -19.55,16.315C-27.112,8.849 -36.783,3.665 -48.295,0.908L-48.062,-0.065C-36.37,2.736 -26.541,8.008 -18.848,15.603C-15.252,19.141 -12.096,23.21 -9.467,27.697C-8.984,28.511 -8.514,29.358 -8.03,30.285C-7.353,31.579 -6.693,32.94 -6.07,34.329C-4.377,38.162 -3.008,42.225 -1.998,46.408L-1.924,46.715C-1.881,46.887 -1.839,47.056 -1.807,47.225C-1.318,49.251 -0.925,51.33 -0.576,53.745L-0.537,54.04C-0.006,58.02 0,60.507 0,60.611L0,61.12Z" style="fill-rule:nonzero;"/>
            </g>
            <g transform="matrix(1,0,0,1,122.548,167.407)">
                <path d="M0,16.118C-2.458,16.118 -4.474,15.41 -6.006,14.007C-7.431,12.701 -8.183,11.026 -8.579,9.614C-8.992,10.802 -9.71,12.156 -10.959,13.261C-12.886,14.965 -15.586,15.642 -18.979,15.269C-29.459,14.122 -33.446,1.849 -33.485,1.725L-32.532,1.425C-32.494,1.542 -28.697,13.2 -18.87,14.275C-15.774,14.615 -13.335,14.023 -11.629,12.518C-9.11,10.297 -9.022,6.778 -9.022,6.743L-8.022,6.749C-8.022,6.79 -7.98,10.846 -5.325,13.274C-3.765,14.701 -1.59,15.305 1.121,15.068C12.25,14.099 13.417,5.247 13.124,0.056L14.122,0C14.657,9.448 9.951,15.304 1.208,16.064C0.794,16.1 0.392,16.118 0,16.118" style="fill-rule:nonzero;"/>
            </g>
            <g transform="matrix(1,0,0,1,176.357,218.599)">
                <path d="M0,6.795L-131.242,4.488C-130.932,3.063 -130.486,1.661 -130.002,0.285C-129.965,0.186 -129.94,0.099 -129.903,0L-0.571,0C-0.558,0.099 -0.546,0.186 -0.533,0.285C-0.013,4.191 0,6.671 0,6.795" style="fill-rule:nonzero;"/>
            </g>
            <g transform="matrix(1,0,0,1,174.559,195.299)">
                <path d="M0,16.802L-125.6,16.802C-125.5,16.529 -125.389,16.269 -125.277,16.009C-123.529,11.854 -121.582,7.837 -119.338,4.017C-118.544,2.654 -117.713,1.314 -116.833,0L-6.175,0C-5.468,1.351 -4.824,2.691 -4.229,4.017C-2.356,8.259 -1.066,12.363 -0.186,16.009C-0.124,16.281 -0.049,16.542 0,16.802" style="fill-rule:nonzero;"/>
            </g>
        </g>
    </g>
</svg>
